<svg width="60" height="60" viewBox="0 0 60 60" fill="none" xmlns="http://www.w3.org/2000/svg">
<path d="M30 60C29.0683 60 28.1988 59.7795 27.3913 59.3937L19.1304 55.039C17.8882 54.4327 18.5093 54.2122 18.882 54.102C20.559 53.6059 20.8696 53.4956 22.6087 52.6137C22.795 52.5034 23.0435 52.5586 23.2298 52.6688L29.5652 56.0312C29.8137 56.1415 30.1242 56.1415 30.3106 56.0312L55.0932 43.2981C55.3416 43.1879 55.4658 42.9674 55.4658 42.6918V17.2807C55.4658 17.0051 55.3416 16.7846 55.0932 16.6743L30.3106 3.99633C30.0621 3.88608 29.7516 3.88608 29.5652 3.99633L4.78261 16.6743C4.53416 16.7846 4.40994 17.0602 4.40994 17.2807V42.6918C4.40994 42.9123 4.53416 43.1879 4.78261 43.2981L11.5528 46.7708C15.2174 48.4244 17.5155 46.4952 17.5155 44.5659V19.4855C17.5155 19.1548 17.8261 18.8241 18.2609 18.8241H21.4286C21.8012 18.8241 22.1739 19.0997 22.1739 19.4855V44.5659C22.1739 48.9205 19.5031 51.4561 14.8447 51.4561C13.4161 51.4561 12.2981 51.4561 9.13043 50.0781L2.6087 46.7708C0.993789 45.944 0 44.4006 0 42.7469V17.3358C0 15.6821 0.993789 14.1387 2.6087 13.3119L27.3913 0.578778C28.9441 -0.192926 31.0559 -0.192926 32.6087 0.578778L57.3913 13.3119C59.0062 14.1387 60 15.6821 60 17.3358V42.7469C60 44.4006 59.0062 45.944 57.3913 46.7708L32.6087 59.5039C31.8012 59.8346 30.8696 60 30 60ZM37.6398 42.5264C26.7702 42.5264 24.5342 38.1167 24.5342 34.3684C24.5342 34.0377 24.8447 33.7069 25.2795 33.7069H28.5093C28.882 33.7069 29.1925 33.9274 29.1925 34.2582C29.6894 37.1796 31.118 38.6128 37.7019 38.6128C42.9193 38.6128 45.1553 37.5655 45.1553 35.085C45.1553 33.6518 44.5342 32.6045 36.3975 31.8879C29.6273 31.2816 25.4037 29.9587 25.4037 25.1631C25.4037 20.6982 29.6273 18.0524 36.7081 18.0524C44.6584 18.0524 48.5714 20.4777 49.0683 25.7694C49.0683 25.9348 49.0062 26.1001 48.882 26.2655C48.7578 26.3757 48.5714 26.486 48.3851 26.486H45.1553C44.8447 26.486 44.5342 26.2655 44.472 25.9899C43.7267 22.9582 41.8012 21.966 36.7081 21.966C30.9938 21.966 30.3106 23.7299 30.3106 25.0528C30.3106 26.6514 31.118 27.1474 38.8199 28.0294C46.4596 28.9113 50.0621 30.1791 50.0621 34.9196C50 39.7703 45.528 42.5264 37.6398 42.5264Z" fill="#539E43"/>
</svg>
