<svg width="80" height="80" viewBox="0 0 80 80" fill="none" xmlns="http://www.w3.org/2000/svg">
<path d="M40 45.6C43.0928 45.6 45.6 43.0928 45.6 40C45.6 36.9072 43.0928 34.4 40 34.4C36.9072 34.4 34.4 36.9072 34.4 40C34.4 43.0928 36.9072 45.6 40 45.6Z" fill="#39C1D7"/>
<path d="M40 46.4C36.4712 46.4 33.6 43.5288 33.6 40C33.6 36.4712 36.4712 33.6 40 33.6C43.5288 33.6 46.4 36.4712 46.4 40C46.4 43.5288 43.5288 46.4 40 46.4ZM40 35.2C37.3528 35.2 35.2 37.3528 35.2 40C35.2 42.6472 37.3528 44.8 40 44.8C42.6472 44.8 44.8 42.6472 44.8 40C44.8 37.3528 42.6472 35.2 40 35.2Z" fill="#1F212B"/>
<path d="M70.8 40C70.8 35.6992 65.6208 31.9768 57.5856 29.7616C59.6512 21.6848 59.0152 15.3336 55.324 13.1784C53.868 12.328 52.1016 12.1728 50.0744 12.7152C47.02 13.5328 43.52 15.9232 40 19.4344C36.48 15.9232 32.98 13.5336 29.9256 12.7152C27.8984 12.172 26.132 12.328 24.676 13.1784C20.9848 15.3336 20.3488 21.684 22.4144 29.7616C14.3792 31.9768 9.20001 35.6992 9.20001 40C9.20001 44.3008 14.3792 48.0232 22.4144 50.2392C20.3488 58.316 20.9848 64.6672 24.676 66.8224C25.5656 67.3416 26.5704 67.6032 27.6808 67.6024C28.3872 67.6024 29.1368 67.4968 29.9256 67.2856C32.98 66.4672 36.48 64.0776 40 60.5664C43.52 64.0776 47.02 66.4672 50.0744 67.2856C50.8632 67.4968 51.6128 67.6024 52.3192 67.6024C53.4296 67.6024 54.4344 67.3424 55.324 66.8224C59.0152 64.6672 59.6504 58.316 57.5856 50.2392C65.6208 48.0232 70.8 44.3008 70.8 40ZM50.6952 15.0328C51.2752 14.8784 51.8128 14.8 52.308 14.8C52.996 14.8 53.6008 14.9504 54.1136 15.2504C56.5872 16.6952 57.092 21.9864 55.2496 29.1792C52.7112 28.608 49.9416 28.1784 46.9984 27.9128C45.2712 25.4224 43.4744 23.1552 41.664 21.1696C44.8784 17.948 48.032 15.7464 50.6952 15.0328ZM48.604 45.0392C47.6608 46.692 46.668 48.2752 45.6496 49.7904C43.8416 49.9256 41.9568 50 40 50C38.0432 50 36.1584 49.9256 34.3512 49.7904C33.3328 48.2752 32.34 46.692 31.3968 45.0392C30.4216 43.3304 29.5464 41.6472 28.7624 40.0008C29.5464 38.3544 30.4216 36.6712 31.3968 34.9616C32.3408 33.308 33.3328 31.7248 34.352 30.2096C36.1592 30.0744 38.0432 30 40 30C41.9568 30 43.8408 30.0744 45.6488 30.2096C46.6672 31.7248 47.66 33.3088 48.604 34.9616C49.5792 36.6704 50.4544 38.3536 51.2384 40.0008C50.4544 41.6472 49.5792 43.3304 48.604 45.0392ZM52.5152 42.836C53.348 44.8048 54.036 46.7 54.5928 48.5016C52.7728 48.9072 50.808 49.2456 48.7096 49.496C49.3832 48.4352 50.0472 47.3504 50.688 46.228C51.3368 45.0928 51.9424 43.9608 52.5152 42.836ZM40 57.0856C38.6912 55.6384 37.3848 54.036 36.1088 52.3024C37.3824 52.364 38.6784 52.4 40 52.4C41.3216 52.4 42.6176 52.364 43.8912 52.3024C42.6152 54.0352 41.3088 55.6376 40 57.0856ZM31.2896 49.496C29.192 49.2456 27.2264 48.9072 25.4064 48.5016C25.9632 46.7 26.6512 44.804 27.484 42.836C28.0568 43.9608 28.6632 45.0928 29.3112 46.228C29.9528 47.3512 30.616 48.436 31.2896 49.496ZM27.4848 37.1648C26.652 35.196 25.9632 33.3 25.4072 31.4976C27.2272 31.092 29.1928 30.7536 31.2912 30.5032C30.6168 31.564 29.9536 32.6496 29.3128 33.772C28.6632 34.908 28.0576 36.04 27.4848 37.1648ZM40 22.9152C41.3088 24.3624 42.6152 25.9648 43.8912 27.6984C42.6176 27.636 41.3216 27.6 40 27.6C38.6784 27.6 37.3824 27.636 36.1088 27.6976C37.3848 25.9648 38.6912 24.3624 40 22.9152ZM50.688 33.7728C50.0472 32.6496 49.3832 31.5648 48.7096 30.504C50.808 30.7544 52.7728 31.0928 54.5936 31.4984C54.0368 33.3008 53.3488 35.196 52.516 37.1656C51.9424 36.04 51.3368 34.908 50.688 33.7728ZM25.8864 15.2504C26.4 14.9504 27.0032 14.8 27.692 14.8C28.1864 14.8 28.7256 14.8784 29.3048 15.0328C31.968 15.7464 35.1216 17.9472 38.336 21.1688C36.5256 23.1544 34.7288 25.4224 33.0016 27.912C30.0584 28.1776 27.288 28.6072 24.7504 29.1784C22.908 21.9856 23.4128 16.6944 25.8864 15.2504ZM11.6 40C11.6 37.1232 15.9208 34.048 23.068 32.0792C23.8432 34.6064 24.8608 37.268 26.1128 40C24.8608 42.732 23.8432 45.3936 23.068 47.9208C15.9208 45.952 11.6 42.8768 11.6 40ZM29.3048 64.9672C27.9184 65.3368 26.7688 65.264 25.8864 64.7504C23.4128 63.3056 22.9088 58.0144 24.7504 50.8216C27.288 51.3928 30.0584 51.8224 33.0008 52.088C34.728 54.5784 36.5248 56.8456 38.3352 58.832C35.1216 62.0528 31.968 64.2536 29.3048 64.9672ZM54.1136 64.7504C53.2312 65.2656 52.0824 65.3376 50.6952 64.9672C48.032 64.2536 44.8784 62.0528 41.664 58.8312C43.4744 56.8456 45.2712 54.5776 46.9984 52.0872C49.9416 51.8216 52.7112 51.392 55.2488 50.8208C57.092 58.0144 56.5872 63.3056 54.1136 64.7504ZM56.932 47.9208C56.1568 45.3936 55.1392 42.732 53.8872 40C55.1392 37.268 56.1568 34.6056 56.932 32.0792C64.0792 34.048 68.4 37.1232 68.4 40C68.4 42.8768 64.0792 45.952 56.932 47.9208Z" fill="#39C1D7"/>
<path d="M27.676 68.0016C26.4992 68.0016 25.4224 67.7208 24.4752 67.1672C20.7696 65.0032 19.8488 58.9464 21.9328 50.5184C13.58 48.1432 8.79999 44.32 8.79999 40C8.79999 35.68 13.58 31.8568 21.932 29.4816C19.8488 21.0536 20.7696 14.9968 24.4752 12.8328C26.0256 11.9256 27.8936 11.756 30.0296 12.3288C33.004 13.1256 36.4456 15.3848 40 18.872C43.5552 15.3848 46.9968 13.1256 49.9704 12.3288C52.1056 11.7576 53.9744 11.9272 55.5256 12.8328C59.2304 14.9968 60.1512 21.0536 58.068 29.4816C66.42 31.8568 71.2 35.68 71.2 40C71.2 44.32 66.42 48.1432 58.068 50.5184C60.1512 58.9464 59.2312 65.0024 55.5256 67.1672C53.984 68.0672 52.0968 68.2408 49.9712 67.6712C46.996 66.8744 43.5544 64.6152 40 61.1288C36.4456 64.6152 33.004 66.8752 30.0296 67.6712C29.2112 67.8904 28.4208 68.0016 27.6808 68.0016C27.6792 68.0016 27.6776 68.0016 27.676 68.0016ZM27.6832 12.7992C26.6424 12.7992 25.704 13.0408 24.8776 13.524C21.4984 15.4976 20.7224 21.5304 22.8016 29.6624C22.8552 29.8736 22.7304 30.0896 22.52 30.1472C14.4304 32.3776 9.59999 36.0616 9.59999 40C9.59999 43.9384 14.4304 47.6224 22.5208 49.8528C22.7312 49.9104 22.856 50.1264 22.8024 50.3376C20.7224 58.4696 21.4984 64.5032 24.8776 66.476C25.7016 66.9568 26.6432 67.2008 27.676 67.2008C27.6776 67.2008 27.6792 67.2008 27.6808 67.2008C28.3512 67.2008 29.0712 67.0992 29.8224 66.8984C32.74 66.1168 36.1624 63.8296 39.7176 60.2824C39.8736 60.1272 40.1264 60.1272 40.2824 60.2824C43.8376 63.8288 47.26 66.116 50.1776 66.8984C52.0928 67.4096 53.7656 67.2672 55.1224 66.476C58.5016 64.5024 59.2776 58.4696 57.1976 50.3376C57.144 50.1264 57.2688 49.9104 57.4792 49.8528C65.5696 47.6224 70.4 43.9384 70.4 40C70.4 36.0616 65.5696 32.3776 57.4792 30.1472C57.2688 30.0896 57.144 29.8736 57.1976 29.6624C59.2768 21.5304 58.5008 15.4968 55.1216 13.524C53.7624 12.7296 52.0984 12.588 50.1768 13.1016C47.2592 13.8832 43.8376 16.1704 40.2816 19.7176C40.1256 19.8728 39.8728 19.8728 39.7168 19.7176C36.1608 16.1704 32.7392 13.8832 29.8216 13.1016C29.0688 12.9 28.3552 12.7992 27.6832 12.7992ZM52.3088 65.5992C51.7784 65.5992 51.2056 65.5176 50.592 65.3536C47.9272 64.6392 44.7424 62.4824 41.3808 59.1136C41.2304 58.9624 41.2248 58.7192 41.368 58.5616C43.18 56.5744 44.9632 54.3192 46.6696 51.8592C46.7368 51.7616 46.844 51.6992 46.9624 51.6888C49.852 51.428 52.6104 51.0048 55.1616 50.4304C55.3704 50.3832 55.5832 50.5112 55.6368 50.7216C57.5056 58.02 56.9992 63.528 54.3152 65.0952C53.74 65.4312 53.0688 65.5992 52.3088 65.5992ZM42.2168 58.8168C45.3776 61.932 48.3392 63.9216 50.7984 64.5808C52.0776 64.9224 53.1256 64.8632 53.912 64.4048C56.196 63.0704 56.5976 57.9464 54.9568 51.2952C52.5344 51.8224 49.9352 52.2168 47.2208 52.4688C45.608 54.7824 43.9264 56.9152 42.2168 58.8168ZM27.6912 65.5992C26.9312 65.5992 26.26 65.4312 25.6848 65.096C23.0008 63.528 22.4936 58.02 24.3632 50.7216C24.4168 50.512 24.6296 50.3864 24.8384 50.4304C27.3888 51.0048 30.1472 51.428 33.0376 51.6888C33.1552 51.6992 33.2632 51.7616 33.3304 51.8592C35.0368 54.3192 36.82 56.5744 38.632 58.5616C38.776 58.7192 38.7704 58.9624 38.6192 59.1136C35.2576 62.4816 32.0728 64.6392 29.4088 65.3536C28.7944 65.5168 28.2208 65.5992 27.6912 65.5992ZM25.0432 51.2952C23.4024 57.9456 23.804 63.0704 26.088 64.4048C26.8736 64.8624 27.9216 64.9224 29.2016 64.5808C31.6608 63.9216 34.6224 61.9312 37.7832 58.8168C36.0744 56.9152 34.3928 54.7824 32.78 52.4688C30.0656 52.2168 27.4656 51.8224 25.0432 51.2952ZM40 57.4848C39.8872 57.4848 39.7792 57.4368 39.7032 57.3528C38.3728 55.8816 37.0552 54.2616 35.7864 52.5384C35.6952 52.4144 35.6832 52.248 35.756 52.112C35.8288 51.976 35.9648 51.8928 36.128 51.9016C38.7728 52.0304 41.2272 52.0304 43.872 51.9016C44.032 51.892 44.1712 51.976 44.244 52.112C44.3168 52.248 44.3056 52.4136 44.2136 52.5384C42.9448 54.2608 41.6272 55.8808 40.2968 57.3528C40.2208 57.4368 40.1128 57.4848 40 57.4848ZM36.9336 52.7392C37.9344 54.0632 38.9632 55.32 40 56.4864C41.0376 55.32 42.0656 54.064 43.0664 52.7392C40.9768 52.8192 39.0232 52.8192 36.9336 52.7392ZM40 50.4C38.1048 50.4 36.1944 50.3296 34.3208 50.1896C34.1984 50.1808 34.0872 50.116 34.0184 50.0136C32.9488 48.4224 31.9496 46.8152 31.0488 45.2376C30.1048 43.5832 29.2136 41.8792 28.4008 40.172C28.3488 40.0632 28.3488 39.9368 28.4008 39.828C29.2136 38.1208 30.1048 36.4168 31.0488 34.7624C31.9488 33.1864 32.948 31.5792 34.0192 29.9856C34.0872 29.884 34.1992 29.8192 34.3216 29.8096C38.0688 29.5296 41.932 29.5296 45.6784 29.8096C45.8008 29.8184 45.912 29.8832 45.9808 29.9856C47.052 31.5792 48.0512 33.1864 48.9512 34.7624C49.8952 36.4168 50.7864 38.1208 51.5992 39.828C51.6512 39.9368 51.6512 40.0632 51.5992 40.172C50.7864 41.8792 49.8952 43.5832 48.9512 45.2376C48.0504 46.8152 47.0512 48.4224 45.9816 50.0136C45.9136 50.1152 45.8016 50.18 45.6792 50.1896C43.8056 50.3296 41.8952 50.4 40 50.4ZM34.5744 49.4056C38.1576 49.6632 41.8424 49.6632 45.4248 49.4056C46.4432 47.8832 47.3952 46.348 48.256 44.84C49.1584 43.2584 50.012 41.6312 50.7944 40C50.012 38.3688 49.1584 36.7408 48.256 35.16C47.396 33.6536 46.444 32.1184 45.424 30.5936C41.8408 30.336 38.1568 30.336 34.5736 30.5936C33.5544 32.1184 32.6016 33.6536 31.7416 35.16C30.8392 36.7416 29.9856 38.3688 29.2032 40C29.9856 41.6312 30.8392 43.2592 31.7416 44.84C32.604 46.3488 33.556 47.8832 34.5744 49.4056ZM48.7104 49.8968C48.5744 49.8968 48.4456 49.8272 48.372 49.7104C48.2896 49.5792 48.2904 49.4128 48.3728 49.2824C49.1152 48.1136 49.7592 47.0496 50.3408 46.0304C50.952 44.96 51.5632 43.824 52.1592 42.6552C52.2296 42.5168 52.3776 42.4344 52.5296 42.4376C52.6848 42.4432 52.8232 42.5376 52.884 42.6816C53.696 44.6008 54.3992 46.52 54.9752 48.3848C55.0088 48.4912 54.9952 48.6072 54.9392 48.7032C54.8832 48.8 54.7888 48.8688 54.68 48.8928C52.8 49.3128 50.8072 49.6496 48.7576 49.8944C48.7416 49.896 48.7256 49.8968 48.7104 49.8968ZM52.4768 43.7848C52.0016 44.6952 51.5184 45.5808 51.036 46.4264C50.5696 47.244 50.0632 48.0896 49.5 48.9936C51.076 48.784 52.612 48.5192 54.0816 48.204C53.62 46.7528 53.0824 45.272 52.4768 43.7848ZM31.2896 49.8968C31.2736 49.8968 31.2576 49.896 31.2416 49.8944C29.1928 49.6488 27.2 49.312 25.32 48.892C25.2112 48.868 25.1176 48.7992 25.0608 48.7024C25.0048 48.6056 24.992 48.4904 25.0248 48.384C25.6008 46.5184 26.304 44.6 27.116 42.6808C27.1768 42.5376 27.3152 42.4424 27.4704 42.4368C27.616 42.4216 27.7704 42.516 27.8408 42.6544C28.4368 43.8232 29.048 44.9592 29.6592 46.0296C30.2416 47.0488 30.8856 48.1128 31.6272 49.2816C31.7104 49.412 31.7104 49.5784 31.628 49.7096C31.5544 49.8272 31.4264 49.8968 31.2896 49.8968ZM25.9192 48.204C27.3888 48.5192 28.9248 48.784 30.5008 48.9936C29.9368 48.0896 29.4312 47.244 28.9648 46.4264C28.4816 45.5808 27.9992 44.6944 27.524 43.7848C26.9176 45.272 26.38 46.7528 25.9192 48.204ZM56.932 48.3208C56.76 48.3208 56.6024 48.2096 56.5496 48.0376C55.7696 45.4944 54.7512 42.8464 53.524 40.1672C53.4752 40.0616 53.4752 39.9392 53.524 39.8336C54.7512 37.1544 55.7696 34.5056 56.5504 31.9616C56.6144 31.7544 56.8336 31.6384 57.0392 31.6936C64.2936 33.6928 68.8 36.8752 68.8 40C68.8 43.1248 64.2928 46.3072 57.0376 48.3064C57.0024 48.316 56.9664 48.3208 56.932 48.3208ZM54.3272 40C55.476 42.524 56.4416 45.0216 57.1984 47.4304C63.7736 45.556 68 42.6576 68 40C68 37.3424 63.7736 34.444 57.1984 32.5696C56.4408 34.9792 55.4752 37.4768 54.3272 40ZM23.068 48.3208C23.0328 48.3208 22.9976 48.316 22.9616 48.3064C15.7072 46.3072 11.2 43.1248 11.2 40C11.2 36.8752 15.7064 33.6928 22.9616 31.6936C23.168 31.6384 23.3864 31.7544 23.4504 31.9616C24.2312 34.5056 25.2496 37.1544 26.4768 39.8336C26.5256 39.9392 26.5256 40.0608 26.4768 40.1672C25.2488 42.8472 24.2312 45.4952 23.4512 48.0376C23.3984 48.2096 23.24 48.3208 23.068 48.3208ZM22.8016 32.5696C16.2264 34.444 12 37.3424 12 40C12 42.6576 16.2264 45.556 22.8016 47.4304C23.5592 45.0216 24.524 42.5248 25.6728 40C24.5248 37.4768 23.5592 34.9792 22.8016 32.5696ZM52.516 37.5656C52.3656 37.5656 52.228 37.4816 52.1592 37.3472C51.5536 36.1568 50.9584 35.052 50.3416 33.9712C49.7608 32.9536 49.1168 31.8896 48.3728 30.7184C48.2896 30.588 48.2896 30.4216 48.372 30.2904C48.4544 30.16 48.6016 30.088 48.7584 30.1064C50.8088 30.352 52.8016 30.6888 54.6816 31.108C54.7904 31.132 54.884 31.2008 54.9408 31.2976C54.9968 31.3944 55.0096 31.5096 54.9768 31.616C54.4 33.4848 53.696 35.404 52.8856 37.3208C52.8248 37.464 52.6864 37.5592 52.5312 37.5648C52.5248 37.5656 52.52 37.5656 52.516 37.5656ZM51.0352 33.5744C51.524 34.4304 51.9992 35.3008 52.476 36.216C53.0808 34.7312 53.6184 33.2488 54.08 31.796C52.6104 31.4808 51.0744 31.216 49.4976 31.0064C50.064 31.912 50.5696 32.7576 51.0352 33.5744ZM27.484 37.5656C27.4792 37.5656 27.4744 37.5656 27.4696 37.5656C27.3144 37.56 27.176 37.4656 27.1152 37.3216C26.3048 35.4048 25.6008 33.4856 25.024 31.6168C24.9904 31.5104 25.004 31.3944 25.06 31.2984C25.116 31.2016 25.2104 31.1328 25.3192 31.1088C27.1992 30.6888 29.192 30.352 31.2424 30.1072C31.3984 30.0912 31.5464 30.1608 31.6288 30.2912C31.7112 30.4224 31.7104 30.5888 31.628 30.7192C30.884 31.8904 30.24 32.9544 29.6592 33.972C29.0424 35.0528 28.4472 36.1568 27.8416 37.348C27.772 37.4816 27.6344 37.5656 27.484 37.5656ZM25.9192 31.796C26.3808 33.2488 26.9192 34.7312 27.5232 36.216C28.0008 35.3008 28.4752 34.4304 28.964 33.5744C29.4304 32.7576 29.936 31.912 30.5008 31.0064C28.9248 31.216 27.3888 31.4808 25.9192 31.796ZM55.2504 29.5792C55.2208 29.5792 55.192 29.576 55.1624 29.5696C52.612 28.9952 49.8528 28.572 46.9624 28.3112C46.8448 28.3008 46.7368 28.2384 46.6696 28.1408C44.9632 25.68 43.1792 23.4256 41.368 21.4392C41.224 21.2816 41.2296 21.0384 41.3808 20.8872C44.7416 17.5192 47.9272 15.3608 50.592 14.6472C52.0872 14.2472 53.3424 14.3376 54.3152 14.9048C56.9992 16.4728 57.5064 21.9808 55.6376 29.2792C55.5912 29.4584 55.4296 29.5792 55.2504 29.5792ZM47.22 27.5312C49.9344 27.7832 52.5344 28.1776 54.9568 28.7048C56.5976 22.0544 56.196 16.9296 53.9112 15.5952C53.128 15.1384 52.0784 15.0784 50.7984 15.4192C48.3392 16.0784 45.3768 18.0688 42.216 21.184C43.9256 23.084 45.6072 25.2168 47.22 27.5312ZM24.7496 29.5792C24.5704 29.5792 24.4088 29.4584 24.3624 29.2784C22.4936 21.98 23 16.4728 25.684 14.9048C25.684 14.9048 25.684 14.9048 25.6848 14.9048C26.6576 14.3376 27.9144 14.2472 29.4072 14.6472C32.0728 15.3616 35.2576 17.5192 38.6184 20.8872C38.7688 21.0384 38.7744 21.2816 38.6312 21.4392C36.82 23.4256 35.036 25.6808 33.3296 28.1408C33.2624 28.2384 33.1552 28.3008 33.0368 28.3112C30.1472 28.572 27.388 28.9952 24.8368 29.5696C24.808 29.576 24.7792 29.5792 24.7496 29.5792ZM26.088 15.5952C23.804 16.9296 23.4024 22.0544 25.0424 28.7048C27.4648 28.1776 30.0648 27.7832 32.7792 27.5312C34.3928 25.2168 36.0736 23.084 37.7824 21.1832C34.6216 18.068 31.66 16.0776 29.2 15.4184C27.9256 15.0784 26.8744 15.1376 26.088 15.5952ZM43.8912 28.0976C43.8848 28.0976 43.8784 28.0976 43.872 28.0976C41.2272 27.9688 38.7736 27.9688 36.1288 28.0976C35.964 28.1016 35.8296 28.0224 35.7568 27.8872C35.684 27.7512 35.6952 27.5856 35.7872 27.4608C37.0568 25.7368 38.3744 24.1168 39.704 22.6464C39.856 22.4792 40.1456 22.4792 40.2976 22.6464C41.6264 24.116 42.944 25.736 44.2144 27.4608C44.3056 27.5848 44.3176 27.7512 44.2448 27.8872C44.1736 28.0168 44.0376 28.0976 43.8912 28.0976ZM40 27.2C40.9936 27.2 42.0216 27.2208 43.0664 27.2616C42.0648 25.936 41.036 24.6792 40 23.5144C38.964 24.68 37.9352 25.936 36.9336 27.2616C37.9784 27.2208 39.0064 27.2 40 27.2Z" fill="#1F212B"/>
</svg>
