<svg width="631" height="348" viewBox="0 0 631 348" fill="none" xmlns="http://www.w3.org/2000/svg">
<path d="M96.2566 297.352C82.2446 307.831 78.2734 326.268 78.2734 326.268C78.2734 326.268 97.0201 327.716 111.032 317.237C125.044 306.758 129.015 288.32 129.015 288.32C129.015 288.32 110.269 286.872 96.2566 297.352Z" class="secondary-color"/>
<path d="M102.093 302.272C95.3592 318.451 78.4933 326.789 78.4933 326.789C78.4933 326.789 72.5459 308.894 79.2802 292.715C86.0145 276.535 102.88 268.197 102.88 268.197C102.88 268.197 108.828 286.092 102.093 302.272Z" class="secondary-color"/>
<path d="M505.23 255.498C503.741 245.437 503.348 235.243 504.057 225.097L505.23 208.304C498.766 221.207 500.227 238.189 505.23 255.498Z" fill="#2E8FFF"/>
<path d="M510.27 258.307C509.553 252.304 509.364 246.248 509.705 240.211L510.27 230.216C507.16 237.896 507.863 248.004 510.27 258.307Z" fill="#2E8FFF"/>
<path d="M532.673 270.669V276.288C532.671 276.734 532.493 277.161 532.178 277.477C531.864 277.792 531.438 277.971 530.993 277.973H528.193C528.119 277.973 528.046 277.987 527.978 278.015C527.91 278.043 527.848 278.085 527.796 278.137C527.744 278.189 527.703 278.251 527.675 278.32C527.647 278.388 527.633 278.461 527.633 278.535V324.606C527.63 325.052 527.453 325.479 527.138 325.795C526.824 326.11 526.398 326.289 525.953 326.291H491.792C491.346 326.291 490.919 326.113 490.604 325.797C490.289 325.481 490.112 325.052 490.112 324.606V278.535C490.111 278.386 490.052 278.243 489.947 278.138C489.842 278.033 489.7 277.974 489.552 277.973H486.192C485.746 277.973 485.319 277.795 485.004 277.479C484.689 277.163 484.512 276.734 484.511 276.288V270.669C484.511 270.448 484.554 270.228 484.639 270.024C484.723 269.819 484.847 269.633 485.003 269.477C485.159 269.32 485.344 269.196 485.548 269.111C485.752 269.027 485.971 268.983 486.192 268.984H530.993C531.438 268.985 531.865 269.163 532.179 269.479C532.494 269.795 532.672 270.223 532.673 270.669Z" class="secondary-color"/>
<path d="M527.683 279.153H490.162V280.839H527.683V279.153Z" fill="white"/>
<path d="M527.633 303.955C515.077 309.168 502.385 309.225 489.552 303.955V292.081C501.906 287.918 515.278 287.918 527.633 292.081V303.955Z" fill="white"/>
<path d="M317.322 122.396C345.351 122.396 368.072 99.6003 368.072 71.481C368.072 43.3616 345.351 20.5664 317.322 20.5664C289.294 20.5664 266.573 43.3616 266.573 71.481C266.573 99.6003 289.294 122.396 317.322 122.396Z" fill="#FEB8B8"/>
<path d="M364.723 27.5561C357.136 15.1952 345.259 6.08683 331.379 1.98447L325.148 6.54579V0.623051C321.815 0.111201 318.441 -0.0859778 315.071 0.0341067L309.696 4.91346V0.439485C301.737 1.43167 294.07 4.06744 287.177 8.18058C280.285 12.2937 274.316 17.795 269.649 24.3376C257.976 41.2204 256.005 64.7082 267.486 81.7265C270.638 72.0091 274.463 62.8913 277.616 53.1749C280.093 53.5136 282.603 53.5258 285.084 53.2112L288.918 44.2348L289.989 52.8313C301.875 51.7928 319.503 49.5117 330.77 47.4219L329.674 40.8268L336.229 46.3069C339.681 45.5099 341.731 44.7865 341.562 44.2339C349.942 57.7873 360.197 66.4437 368.576 79.997C371.759 60.886 375.422 44.9955 364.723 27.5561Z" fill="#2F2E41"/>
<path d="M426.47 202.409C424.725 191.876 422.925 181.141 418.046 171.652C414.839 165.437 409.748 159.514 402.886 158.285C401.534 158.164 400.205 157.856 398.938 157.369C396.927 156.397 369.906 140.922 365.611 138.226C361.924 135.912 356.103 131.628 353.168 131.628C350.215 131.563 338.892 134.207 294.699 130.741C294.699 130.741 282.559 135.542 273.165 141.363C273.023 141.269 227.297 165.903 225.579 165.838C222.325 165.701 219.301 167.791 217.436 170.422C215.572 173.054 214.697 176.312 213.781 179.462C223.769 201.775 232.906 224.118 242.895 246.431C243.362 247.272 243.611 248.217 243.617 249.18C243.416 250.179 242.991 251.119 242.375 251.928C237.476 259.822 237.632 269.75 238.167 279.028C238.703 288.306 239.365 298.106 235.232 306.422C234.108 308.705 232.646 310.794 231.577 313.077C229.073 318.248 228.168 334.787 229.631 340.342L412.849 345.608C408.91 334.744 426.47 202.409 426.47 202.409Z" fill="#2E8FFF"/>
<path d="M197.944 247.421C197.579 250.074 197.542 252.762 197.835 255.425L200.461 293.26C200.707 296.826 200.95 300.383 201.283 303.94C201.913 310.844 202.855 317.692 204.023 324.53C204.049 325.501 204.458 326.422 205.161 327.091C205.863 327.759 206.801 328.121 207.769 328.096C219.329 330.55 231.272 330.452 243.069 329.784C261.071 328.776 307.128 326.868 309.941 323.201C312.755 319.534 311.116 313.603 307.447 310.637C303.778 307.672 243 300.443 243 300.443C243.593 295.722 245.385 291.275 247.084 286.792C250.137 278.842 252.988 270.63 253.043 262.113C253.097 253.596 249.899 244.641 242.945 239.762C237.224 235.756 229.859 235.013 222.888 235.178C217.816 235.324 209.053 234.105 204.42 236.095C200.754 237.714 198.629 243.82 197.944 247.421Z" fill="#FBBEBE"/>
<path d="M213.253 180.141C212.363 181.076 211.672 182.183 211.225 183.396C203.838 200.097 199.475 217.984 198.34 236.219C198.36 237.109 198.156 237.988 197.746 238.777C197.342 239.302 196.893 239.79 196.403 240.235C195.976 240.743 195.653 241.33 195.452 241.964C195.251 242.597 195.176 243.264 195.232 243.926C195.288 244.588 195.474 245.233 195.778 245.823C196.083 246.413 196.5 246.938 197.006 247.366C197.089 247.437 197.175 247.504 197.262 247.569C198.77 244.722 202.379 243.792 205.587 243.545C220.948 242.326 235.952 249.495 251.359 248.954C250.272 245.186 248.708 241.565 247.822 237.751C243.901 220.819 253.679 202.383 247.685 186.073C246.487 182.81 244.487 179.601 241.334 178.171C240.029 177.642 238.663 177.28 237.268 177.091C233.375 176.385 225.625 173.369 221.861 174.579C220.472 175.029 219.924 176.339 218.773 177.131C217.023 178.252 214.703 178.664 213.253 180.141Z" fill="#2E8FFF"/>
<path d="M426.58 236.095C421.947 234.105 413.184 235.324 408.112 235.178C401.141 235.013 393.776 235.756 388.055 239.762C381.101 244.641 377.903 253.596 377.957 262.113C378.012 270.63 380.863 278.842 383.916 286.792C385.615 291.275 387.407 295.722 388 300.443C388 300.443 327.222 307.672 323.553 310.637C319.884 313.603 318.245 319.534 321.058 323.201C323.872 326.869 411.671 330.55 423.231 328.096C424.199 328.121 425.137 327.759 425.839 327.091C426.542 326.422 426.951 325.501 426.977 324.53C428.145 317.692 429.087 310.844 429.717 303.94C430.05 300.383 430.293 296.826 430.539 293.26L433.165 255.425C433.458 252.762 433.421 250.074 433.056 247.421C432.371 243.82 430.246 237.714 426.58 236.095Z" fill="#FBBEBE"/>
<path d="M412.227 177.131C411.076 176.339 410.528 175.029 409.138 174.579C405.375 173.369 397.625 176.385 393.732 177.091C392.337 177.28 390.971 177.642 389.666 178.171C386.513 179.601 384.513 182.81 383.315 186.073C377.32 202.383 387.098 220.819 383.178 237.751C382.292 241.565 380.728 245.186 379.641 248.954C395.048 249.495 410.052 242.326 425.413 243.545C428.621 243.792 432.23 244.722 433.738 247.569C433.825 247.504 433.911 247.437 433.994 247.366C434.5 246.938 434.917 246.414 435.222 245.823C435.526 245.233 435.711 244.588 435.768 243.926C435.824 243.264 435.749 242.597 435.548 241.964C435.347 241.33 435.024 240.743 434.597 240.235C434.107 239.79 433.657 239.302 433.254 238.777C432.844 237.988 432.64 237.108 432.66 236.219C431.525 217.984 427.162 200.097 419.775 183.396C419.327 182.183 418.637 181.076 417.747 180.141C416.297 178.664 413.977 178.252 412.227 177.131Z" fill="#2E8FFF"/>
<path d="M302.292 329.903C309.857 329.903 315.989 323.751 315.989 316.162C315.989 308.572 309.857 302.42 302.292 302.42C294.727 302.42 288.594 308.572 288.594 316.162C288.594 323.751 294.727 329.903 302.292 329.903Z" fill="#FBBEBE"/>
<path d="M332.622 329.903C340.187 329.903 346.319 323.751 346.319 316.162C346.319 308.572 340.187 302.42 332.622 302.42C325.057 302.42 318.924 308.572 318.924 316.162C318.924 323.751 325.057 329.903 332.622 329.903Z" fill="#FBBEBE"/>
<path d="M417.172 347.127H228.991C226.794 347.124 224.688 346.248 223.134 344.689C221.581 343.131 220.707 341.018 220.704 338.813V224.278C220.707 222.074 221.581 219.961 223.134 218.403C224.688 216.844 226.794 215.967 228.991 215.965H417.172C419.369 215.967 421.475 216.844 423.029 218.403C424.583 219.961 425.457 222.074 425.459 224.278V338.813C425.457 341.018 424.583 343.131 423.029 344.689C421.475 346.248 419.369 347.124 417.172 347.127Z" fill="#3F3D56"/>
<path d="M322.625 287.047C325.653 287.047 328.108 284.584 328.108 281.546C328.108 278.508 325.653 276.045 322.625 276.045C319.597 276.045 317.142 278.508 317.142 281.546C317.142 284.584 319.597 287.047 322.625 287.047Z" class=""/>
<path d="M631 324.025H0V343.478H37.3229V348H593.691V343.478H631V324.025Z" class="secondary-color"/>
<path d="M270.655 90.4579C262.5 90.4579 255.89 83.2872 255.89 74.4417V66.4335C255.89 57.5879 262.5 50.4172 270.655 50.4172V90.4579Z" fill="#2E8FFF"/>
<path d="M364.895 50.4172C373.049 50.4172 379.66 57.5879 379.66 66.4335V74.4416C379.66 83.2872 373.049 90.4579 364.895 90.4579V50.4172Z" fill="#2E8FFF"/>
<path d="M372.632 67.692H370.289C370.289 35.4642 346.118 9.24478 316.408 9.24478C286.698 9.24478 262.527 35.4642 262.527 67.692H260.185C260.185 34.0629 285.406 6.70361 316.408 6.70361C347.41 6.70363 372.632 34.0629 372.632 67.692Z" fill="#2E8FFF"/>
</svg>
