<svg width="80" height="80" viewBox="0 0 80 80" fill="none" xmlns="http://www.w3.org/2000/svg">
<path d="M40 0L75.3533 20V60L40 80L4.64667 60V20L40 0Z" fill="white"/>
<path d="M69.04 58.62L41.1667 74.3866V62.1066L58.5333 52.5533L69.04 58.62ZM70.9467 56.8933V23.9199L60.7467 29.8066V51L70.9467 56.8933ZM10.8467 58.62L38.72 74.3866V62.1066L21.3533 52.5533L10.8467 58.62ZM8.94 56.8933V23.9199L19.14 29.8066V51L8.94 56.8933ZM10.1333 21.7866L38.72 5.61328V17.4866L20.4067 27.56L20.2667 27.64L10.1333 21.7866ZM69.7533 21.7866L41.1667 5.61328V17.4866L59.48 27.56L59.62 27.64L69.7533 21.7866Z" fill="#8ED6FB"/>
<path d="M38.72 59.3134L21.5867 49.8934V31.2267L38.72 41.12V59.3134ZM41.1667 59.3134L58.3 49.8934V31.2267L41.1667 41.12V59.3134ZM22.7467 29.0667L39.9467 19.6067L57.1467 29.0667L39.9467 39L22.7467 29.0667Z" fill="#1C78C0"/>
</svg>
